PathFileType  4	(X/Y/Z) C:\Users\HPL 1\Documents/Temp/Sub278498/Files_W_HJCs/
DataRate	CameraRate	NumFrames	NumMarkers	Units	OrigDataRate	OrigDataStartFrame	OrigNumFrames
50.0	50.0	9	42	mm	50.0	514	684
Frame#	Time  	r_knee			r_shank(antsup)			r_ankle			r_calc			r_5meta			r_toe			L_knee			L_shank(ant_sup)			L_ankle			L_calc			L_5meta			L_toe			r_mknee			r_mankle			L_mknee			L_mankle			r_sh2			r_sh3			r_sh4			L_sh2			L_sh3			r_thigh1			r_thigh2			r_thigh3			r_thigh4			r_thigh5			L_thigh1			L_thigh2			L_thigh3			L_thigh4			r.ASIS			r.PSIS			L.ASIS			L.PSIS			C7			R_Shoulder			L_Shoulder			Sternum			R_HJC			L_HJC			R_HJC_reg			L_HJC_reg			
		X1	Y1	Z1	X2	Y2	Z2	X3	Y3	Z3	X4	Y4	Z4	X5	Y5	Z5	X6	Y6	Z6	X7	Y7	Z7	X8	Y8	Z8	X9	Y9	Z9	X10	Y10	Z10	X11	Y11	Z11	X12	Y12	Z12	X13	Y13	Z13	X14	Y14	Z14	X15	Y15	Z15	X16	Y16	Z16	X17	Y17	Z17	X18	Y18	Z18	X19	Y19	Z19	X20	Y20	Z20	X21	Y21	Z21	X22	Y22	Z22	X23	Y23	Z23	X24	Y24	Z24	X25	Y25	Z25	X26	Y26	Z26	X27	Y27	Z27	X28	Y28	Z28	X29	Y29	Z29	X30	Y30	Z30	X31	Y31	Z31	X32	Y32	Z32	X33	Y33	Z33	X34	Y34	Z34	X35	Y35	Z35	X36	Y36	Z36	X37	Y37	Z37	X38	Y38	Z38	X39	Y39	Z39	X40	Y40	Z40	X41	Y41	Z41	X42	Y42	Z42	

514	10.26000	757.52960	571.36682	-243.67276	770.09009	482.05783	-243.44551	709.21741	110.62312	-282.36899	621.14172	69.00225	-332.78519	817.44727	39.30124	-249.94051	861.30255	73.58674	-309.75116	650.39587	592.43530	-541.20563	600.71643	481.45776	-528.62347	303.84753	291.52570	-491.46051	220.86140	312.34219	-434.13141	339.03445	155.98300	-524.31433	394.74274	152.44563	-469.73874	753.48083	561.01599	-371.51642	724.42096	120.07369	-376.78775	683.83667	571.56439	-420.43314	335.18710	280.46017	-401.17938	763.96838	362.49997	-253.58339	694.86487	482.87537	-232.76709	681.12488	367.16577	-238.40387	550.19086	554.01013	-547.83533	457.13608	474.53320	-537.26434	829.55316	896.12555	-219.43022	832.14996	781.45093	-225.14822	788.62415	747.61194	-213.28763	720.42242	886.53754	-186.37439	726.34509	769.94159	-211.29512	788.34094	843.26031	-563.20593	767.81372	705.58972	-561.16376	672.20508	861.54163	-563.99561	658.03094	725.90692	-551.06714	862.06812	1075.72424	-255.76025	675.44012	1140.22986	-328.92615	855.26636	1093.73584	-510.98517	678.02979	1144.53979	-411.68945	732.98065	1617.70691	-367.73795	798.08313	1591.63208	-198.93523	792.83673	1580.13806	-547.11041	869.12903	1540.02173	-365.07230	781.38395	998.43267	-266.31924	772.56629	1016.07788	-501.85927	775.90987	1013.73696	-297.72647	781.18588	1022.51771	-466.34263
515	10.28000	758.24683	571.30170	-244.06029	770.71155	481.91428	-243.72990	709.25995	110.66278	-282.48303	621.19318	69.11017	-332.87241	817.48145	39.68071	-249.54091	861.36694	73.45367	-309.77371	665.35522	589.34137	-542.17517	618.76752	477.39285	-529.46924	326.65967	279.60657	-494.28668	242.86771	297.93524	-437.73727	366.25024	145.15024	-526.98151	421.59723	143.31416	-471.88806	754.59094	560.87689	-371.89307	724.59265	120.03452	-376.92050	697.94446	569.95038	-420.48343	357.93073	269.51367	-404.04889	764.38196	362.43484	-253.76166	695.51184	482.89014	-233.16901	681.61523	367.30139	-238.77751	566.41571	548.32104	-549.58765	475.69025	466.34909	-539.52802	829.93738	896.23090	-219.25487	833.38129	781.72443	-225.27684	789.15436	747.70868	-213.54050	720.72522	886.50037	-186.55965	726.88611	769.98578	-211.54259	795.75000	844.28723	-562.75702	779.60925	706.35730	-560.98273	679.31061	858.54785	-564.91089	669.05304	723.18182	-551.99042	861.05127	1076.80225	-255.02446	674.12787	1138.70715	-329.33856	854.99835	1095.62817	-509.84573	676.86584	1142.92749	-412.27975	730.21863	1617.95776	-366.99316	795.79108	1592.06030	-198.26620	789.51282	1580.46338	-546.61444	866.61560	1540.70508	-364.75409	781.61588	998.34371	-266.30243	773.95473	1016.44731	-501.84814	776.11812	1014.37614	-296.98207	781.67645	1022.94382	-465.36034
516	10.30000	758.76447	571.31030	-244.45975	771.44592	481.86853	-244.04495	709.33527	110.72398	-282.60895	621.25159	69.19945	-332.94766	817.48572	39.65945	-249.55350	861.41931	73.38767	-309.77274	680.55493	586.51434	-542.89514	636.56604	473.80865	-530.10449	349.47546	268.41733	-497.35129	264.51181	284.49927	-441.97495	394.00064	135.49413	-529.87299	447.96463	135.20979	-473.87457	755.50397	560.83588	-372.40936	724.71063	119.91222	-376.45959	711.91638	568.75952	-420.47421	380.09760	259.47507	-406.75620	764.99536	362.38834	-254.08656	696.17285	482.95117	-233.70694	682.04254	367.43225	-239.27820	581.82367	543.64874	-551.41553	494.44406	459.10159	-541.86127	830.00446	896.39587	-219.18680	833.96094	781.77600	-225.24644	789.46362	747.79797	-213.79831	720.86304	886.41870	-186.90692	727.13690	769.97345	-211.80298	803.32562	845.39673	-562.35187	791.12061	706.93188	-560.77618	686.92242	856.70099	-565.87976	680.15485	720.78925	-552.72278	859.80157	1077.94189	-254.46947	672.55237	1137.63721	-329.90842	855.54553	1097.97351	-508.73230	675.48560	1141.83130	-412.95197	727.57318	1618.14783	-366.19226	793.60333	1592.31140	-197.71565	786.63934	1580.72961	-545.96844	864.12378	1541.42151	-364.24573	781.55685	998.42566	-266.57395	775.60289	1017.46055	-502.09558	776.34632	1015.41825	-296.48506	782.28169	1023.90496	-464.52312
517	10.32000	760.21301	571.38885	-245.27995	772.40265	481.78055	-244.43953	709.52533	110.84513	-282.83649	621.32593	69.43675	-333.08426	817.53326	39.66550	-249.57274	861.53131	73.36634	-309.74280	695.21387	584.22107	-543.48688	654.19122	470.87360	-530.71332	371.95825	258.66724	-500.57709	285.77432	272.40921	-446.26645	420.23785	126.84383	-532.12964	473.97882	128.36386	-475.66095	756.90173	560.97449	-373.18967	725.01801	119.92219	-377.18466	725.93225	567.72290	-420.71451	401.54861	250.75052	-409.75430	765.70569	362.25403	-254.56244	697.32953	483.01126	-234.37845	682.97345	367.59473	-239.85249	598.22052	539.15485	-552.65576	512.12085	452.68134	-543.96405	829.92639	896.51288	-218.95638	834.25739	782.00562	-225.24538	789.70258	747.81775	-214.03963	720.51355	886.17212	-187.28227	727.25232	769.79114	-212.25653	810.79980	846.48700	-561.70868	802.28381	707.91656	-560.33112	694.20276	854.81689	-566.58008	691.10834	718.51038	-553.19623	858.67963	1079.23279	-253.61029	671.01678	1136.48877	-330.66434	856.45355	1100.30054	-507.94806	674.45361	1140.71777	-413.49518	724.93274	1618.26306	-365.76071	791.27362	1592.62390	-197.19044	783.65582	1580.97498	-545.50916	861.71375	1541.88464	-363.82617	781.72841	998.60510	-266.78320	777.60098	1018.45994	-502.27621	776.55714	1016.11893	-296.18061	783.53117	1024.70044	-464.26149
518	10.34000	761.65204	571.34937	-245.86086	774.16589	481.67023	-245.23259	709.85931	111.03206	-283.14832	621.43524	69.66052	-333.18976	817.58600	39.62787	-249.60454	861.69104	73.11539	-309.79224	709.88153	582.18286	-544.02441	671.22107	468.51651	-531.37891	393.53171	250.07547	-503.78790	306.38586	261.93076	-450.51443	445.41733	119.63204	-534.45551	498.41129	122.44221	-477.34915	759.04102	561.16150	-373.90649	725.43457	119.87370	-377.58359	739.95313	567.00189	-421.06934	422.44189	243.05769	-412.69754	767.03467	362.24350	-255.15410	698.88141	483.18234	-234.91348	684.13123	367.75354	-240.51689	614.02338	535.61481	-554.18091	530.19208	447.12488	-546.37311	829.39758	896.66174	-218.49524	834.25464	782.13715	-224.98924	789.85657	747.77142	-214.20485	719.95038	885.70892	-187.48703	727.25720	769.36108	-213.02249	817.92896	847.59735	-561.26660	813.34454	708.90051	-559.91071	701.21875	852.47443	-567.15460	701.60370	716.69562	-554.06464	857.02142	1080.09229	-252.73570	669.48956	1135.55396	-331.24503	856.86346	1102.08618	-506.96921	673.49048	1139.92957	-414.09109	722.34058	1618.26794	-365.22659	789.09589	1592.78357	-196.87247	781.03003	1581.08203	-545.14948	859.36652	1542.25842	-363.54120	781.15187	998.65181	-266.86292	778.91081	1019.28375	-502.31464	776.06171	1016.53584	-295.95160	784.17458	1025.40848	-463.94281
519	10.36000	763.06476	571.24255	-246.51382	775.69141	481.60974	-245.87901	710.14764	111.19297	-283.45886	621.65558	69.84436	-333.52249	817.62079	39.59735	-249.62915	861.87341	72.88640	-309.81552	722.50421	582.23218	-543.29901	687.38892	466.84506	-531.92596	414.02145	242.54694	-506.84726	326.15280	252.48793	-454.50391	468.81097	113.13106	-536.74799	521.44434	117.27808	-479.19522	761.51465	561.02496	-374.40933	725.77405	119.83265	-377.88141	752.84192	566.71570	-421.04028	442.15125	236.37024	-415.41858	768.20770	362.16562	-255.68643	700.35681	483.26941	-235.53131	685.46301	367.81744	-241.09586	628.94171	532.33496	-555.01917	546.58862	442.34592	-548.45282	828.49609	896.75409	-217.64293	834.54803	782.29944	-224.64372	789.66754	747.57562	-214.17526	718.81836	885.10864	-187.86523	726.95264	768.87476	-213.71440	825.03918	848.78632	-560.72784	824.17108	710.05615	-558.90509	708.35004	850.76874	-567.81360	711.97137	714.98236	-554.63159	855.24524	1080.76685	-251.72696	667.82361	1134.74060	-331.88422	857.19312	1103.60352	-505.74194	672.60632	1139.08069	-414.84250	719.58105	1618.27344	-365.20740	786.73669	1592.86755	-196.73506	778.70917	1581.07239	-544.88464	856.97601	1542.49194	-363.25302	780.27397	998.65748	-266.80471	780.13322	1019.92835	-502.21019	775.11660	1017.12180	-295.59500	784.79193	1025.90173	-463.41815
520	10.38000	763.85724	571.13599	-246.78047	776.47552	481.52640	-246.06033	710.31799	111.23524	-283.68799	621.69623	70.12995	-333.37601	817.62909	39.58088	-249.64830	861.99921	72.70913	-309.83414	736.08569	581.78168	-542.89655	702.34265	465.73544	-532.25629	433.15375	235.70575	-509.75150	344.90485	243.77908	-458.35712	490.89676	107.61243	-539.36737	543.08917	112.75981	-481.43356	763.94507	560.83075	-374.69571	726.02899	119.77991	-378.10944	764.56073	566.85724	-420.96759	460.75085	230.09555	-418.15707	768.85693	362.08920	-255.84618	701.22388	483.30334	-236.08636	685.95746	367.85352	-241.84467	642.79462	530.05396	-556.11749	562.05658	438.12711	-550.16449	827.23145	896.73462	-216.62450	833.92883	782.33594	-223.73790	788.97070	747.33569	-213.95168	717.23608	884.34833	-188.38135	726.05835	768.41614	-214.42740	831.73602	850.14935	-559.89221	833.96991	711.42401	-557.90930	715.17755	849.83490	-568.70996	721.53564	713.86884	-555.38684	853.61823	1081.34204	-250.52109	666.43457	1134.00623	-332.62378	858.53430	1104.59387	-504.26172	671.85211	1138.27637	-415.39487	717.14465	1618.22424	-365.22800	783.96399	1593.09912	-196.70085	776.62280	1581.04871	-544.88147	854.80280	1542.82544	-363.12613	779.42502	998.65695	-266.42638	781.82173	1020.27580	-501.78801	774.70747	1017.54637	-294.89039	785.67860	1026.19388	-462.51107
521	10.40000	763.69043	571.04462	-246.79800	776.55530	481.47647	-245.99931	710.36713	111.28988	-283.81198	621.68420	70.33412	-333.33212	817.63446	39.54273	-249.59291	862.04572	72.60644	-309.78067	747.22028	581.40002	-542.76666	715.88751	464.78427	-532.49829	451.42664	229.66397	-512.77643	362.46078	235.24825	-461.76404	512.10229	102.81545	-542.47791	564.29144	109.21992	-484.18054	765.12598	560.56921	-374.26428	726.20618	119.77761	-378.19312	774.43372	567.17438	-420.42392	478.38428	224.13324	-421.04422	768.91980	362.04276	-255.84158	701.36725	483.31589	-236.32413	685.95660	367.83517	-242.22044	655.49622	527.77417	-556.62872	576.50726	434.55972	-551.64697	825.80969	896.56171	-215.31822	832.85211	782.08527	-222.95747	787.61432	747.12006	-213.51114	714.60474	883.99823	-193.03587	724.63513	768.12775	-215.35886	837.76886	851.47638	-558.78638	842.43463	712.85071	-556.58215	721.34113	848.53027	-569.52124	730.01801	713.31812	-555.84784	852.09656	1081.87683	-249.19177	665.24750	1133.23291	-333.35422	858.99957	1105.79663	-502.78915	671.33789	1137.71326	-416.13144	714.56403	1618.28186	-365.83942	780.97748	1593.40271	-196.78123	774.76245	1581.00391	-545.03503	852.39856	1543.22888	-362.91324	778.58048	998.67377	-266.15748	783.19846	1020.80005	-501.43883	774.10440	1017.61119	-294.33860	786.42698	1026.67620	-461.82028
522	10.42000	762.91553	571.14313	-246.64294	776.20361	481.50131	-245.80562	710.37537	111.33837	-283.84692	621.68933	70.35757	-333.42468	817.63995	39.53679	-249.56548	862.03302	72.56676	-309.71622	757.35895	581.26874	-542.32343	728.59937	464.16592	-532.40137	468.63647	223.83360	-515.68768	378.90482	226.72087	-465.41544	532.52991	98.74749	-545.51874	583.91333	106.24313	-486.96072	765.63214	560.55682	-374.62137	726.29297	119.80499	-378.18954	782.26508	567.76233	-419.77771	494.90350	218.40347	-423.87576	768.53778	362.04410	-255.68570	700.87177	483.32080	-236.47162	685.53699	367.86557	-242.39503	666.91071	525.84442	-557.14960	590.12421	430.63095	-553.81561	824.34595	896.11627	-214.12462	831.05975	781.90674	-221.73170	785.51794	746.88953	-213.06104	712.23999	884.00165	-194.38115	722.64111	768.04523	-216.32648	843.24139	852.70001	-557.38879	850.31073	714.17328	-554.95209	726.64783	848.23694	-570.61810	737.58154	712.59796	-555.95618	850.39789	1082.34717	-247.91063	663.95496	1132.71667	-334.19138	859.38379	1106.98059	-501.28513	670.82422	1137.42493	-416.84811	712.25208	1618.26746	-366.33554	777.78534	1593.79102	-197.07581	773.31830	1580.82568	-545.31799	850.16547	1543.49414	-362.85556	777.42958	998.74905	-265.93950	784.36744	1021.44664	-501.10943	773.16951	1017.74159	-293.94835	787.07091	1027.26975	-461.22175
